<?xml version="1.0" encoding="UTF-8"?><svg id="Calque_2" xmlns="http://www.w3.org/2000/svg" xmlns:xlink="http://www.w3.org/1999/xlink" viewBox="0 0 58.75 58.75"><defs><style>.cls-1{fill:#fff;}.cls-2{fill:url(#Dégradé_sans_nom_14);}.cls-3{fill:#121212;stroke:#fff;stroke-miterlimit:10;}</style><linearGradient id="Dégradé_sans_nom_14" x1="12.76" y1="41.3" x2="44.87" y2="25.02" gradientUnits="userSpaceOnUse"><stop offset=".13" stop-color="#fbd347"/><stop offset=".37" stop-color="#db3832"/><stop offset=".75" stop-color="#7e398e"/><stop offset=".82" stop-color="#1791ce"/><stop offset="1" stop-color="#23a758"/></linearGradient></defs><g id="Calque_1-2"><g><rect class="cls-3" x=".5" y=".5" width="57.75" height="57.75" rx="8.37" ry="8.37"/><g><path class="cls-2" d="M47.07,40.59l-6.87-14.39c-.12-.25-.09-.53,.07-.76,.12-.17,.32-.28,.53-.31l2.44-.35c.84-.12,1.46-.84,1.46-1.69v-1.65c0-.54-.26-1.03-.66-1.35l-2.27-1.91c-.23-.32-.57-.56-.98-.62l-12.56-1.83c-.54-.08-1.06,.14-1.39,.58-.33,.44-.38,1-.14,1.5l6.65,13.93c.15,.31,.13,.66-.06,.95-.05,.07-.1,.14-.16,.19l-4.12-7.78c-.07-.14-.16-.26-.27-.38h0s-.06-.05-.06-.05c-.05-.05-.1-.09-.16-.14l-2.3-1.97c-.27-.35-.69-.56-1.15-.56-1.62,0-3.53,0-5.47,0-1.73,0-3.48,0-5.04,0h0c-.52,0-.99,.27-1.25,.71-.27,.44-.28,.98-.04,1.44l2.23,4.22c.22,.41,.12,.93-.24,1.22l-3.2,2.65c-.62,.51-.71,1.44-.19,2.06l4.55,5.51c.13,.16,.29,.29,.47,.38l2.76,2.2c.5,.4,1.11,.61,1.75,.61h1.29c1.55,0,3.15,0,3.74,0h6.45c1.61,0,3.44,0,5.28,0,1.89,0,3.81,0,5.54,0,.62,0,1.22,0,1.78,0,.54,0,1.06-.22,1.39-.65,.41-.52,.48-1.21,.2-1.79Z"/><path class="cls-1" d="M30.42,39.88c1.64,0,3.5,0,5.38,0,2.57,0,5.18,0,7.31,0,.34,0,.65-.17,.84-.46,.18-.29,.2-.64,.06-.95l-6.87-14.39c-.2-.42-.19-.91,.03-1.32,.22-.42,.62-.69,1.08-.76l2.47-.36c.48-.07,.84-.49,.84-.98v-1.65c0-.49-.36-.91-.85-.98l-12.56-1.83c-.37-.05-.72,.09-.94,.39s-.26,.68-.1,1.01l6.65,13.93c.22,.46,.19,.98-.08,1.41-.27,.43-.73,.68-1.24,.68-.54,0-1.04-.3-1.3-.78l-5.2-9.83c-.17-.32-.51-.52-.87-.52-1.62,0-3.53,0-5.47,0-1.73,0-3.48,0-5.05,0h0c-.35,0-.66,.18-.84,.48-.18,.3-.19,.66-.03,.97l2.23,4.22c.32,.61,.17,1.37-.36,1.82l-3.2,2.65c-.42,.35-.48,.97-.13,1.39l4.55,5.51c.19,.23,.47,.36,.76,.36h2.52c1.61,0,3.33,0,3.95,0h5.59c.27,0,.55,0,.84,0Z"/></g></g></g></svg>