<?xml version="1.0" encoding="UTF-8" ?>
<svg
  id="Calque_2"
  xmlns="http://www.w3.org/2000/svg"
  xmlns:xlink="http://www.w3.org/1999/xlink"
  viewBox="0 0 201.75 58.75"
><defs><style
    >.cls-1{fill:#fff;}.cls-2{fill:#232323;}.cls-3{fill:url(#Dégradé_sans_nom_14);}.cls-4{fill:#121212;stroke:#fff;stroke-miterlimit:10;}</style><linearGradient
      id="Dégradé_sans_nom_14"
      x1="12.76"
      y1="41.3"
      x2="44.87"
      y2="25.02"
      gradientUnits="userSpaceOnUse"
    ><stop offset=".13" stop-color="#fbd347" /><stop
        offset=".37"
        stop-color="#db3832"
      /><stop offset=".75" stop-color="#7e398e" /><stop
        offset=".82"
        stop-color="#1791ce"
      /><stop offset="1" stop-color="#23a758" /></linearGradient></defs><g
    id="Calque_1-2"
  ><g><path
        class="cls-2"
        d="M79.81,39.14c-.52,0-1.03-.05-1.52-.13-.49-.09-.95-.27-1.37-.54-.42-.27-.77-.66-1.04-1.19h-.24l-.11,1.64h-4.1V18.9h4.31v7.73h.22c.29-.45,.63-.79,1.02-1.04,.4-.24,.83-.41,1.31-.5,.48-.09,.98-.13,1.52-.13,.81,0,1.5,.12,2.06,.35s1.03,.62,1.39,1.15c.36,.53,.62,1.25,.79,2.17,.17,.92,.26,2.07,.26,3.45s-.09,2.53-.27,3.45c-.18,.92-.45,1.63-.81,2.16-.36,.52-.83,.89-1.4,1.12-.58,.22-1.25,.34-2.02,.34Zm-1.97-3.56c.49,0,.87-.03,1.16-.09,.29-.06,.5-.21,.63-.43,.13-.22,.22-.57,.27-1.05s.07-1.13,.07-1.95-.02-1.47-.07-1.94-.13-.81-.27-1.04-.35-.37-.63-.44c-.29-.07-.67-.11-1.16-.11s-.86,.05-1.13,.15c-.27,.1-.48,.29-.62,.58-.14,.29-.24,.66-.28,1.12s-.07,1.02-.07,1.68,.02,1.23,.07,1.68,.14,.83,.28,1.12c.13,.27,.33,.46,.61,.57,.28,.11,.66,.16,1.15,.16Z"
      /><path class="cls-2" d="M87.19,38.92V18.9h4.37v20.02h-4.37Z" /><path
        class="cls-2"
        d="M100.93,39.14c-1.22,0-2.24-.07-3.05-.22s-1.45-.37-1.93-.69c-.48-.31-.82-.75-1.02-1.29-.21-.55-.35-1.23-.42-2.03-.07-.81-.11-1.76-.11-2.86s.04-2.07,.11-2.88,.21-1.48,.42-2.02c.21-.54,.55-.97,1.02-1.29,.48-.32,1.12-.55,1.93-.69s1.82-.2,3.05-.2,2.26,.07,3.07,.2c.81,.13,1.44,.36,1.9,.69,.46,.32,.8,.75,1.02,1.29s.37,1.21,.43,2.02,.09,1.77,.09,2.88-.03,2.05-.09,2.86c-.06,.81-.21,1.49-.43,2.03-.22,.55-.57,.98-1.02,1.29s-1.09,.54-1.9,.69c-.81,.14-1.83,.22-3.07,.22Zm0-3.26c.54,0,.96-.04,1.27-.13s.52-.26,.65-.5c.13-.24,.2-.62,.23-1.15s.04-1.2,.04-2.05-.01-1.57-.04-2.07-.1-.88-.23-1.13c-.13-.25-.34-.42-.65-.5-.31-.08-.73-.12-1.27-.12s-.96,.04-1.27,.12c-.31,.08-.52,.25-.63,.5-.12,.25-.19,.63-.22,1.13s-.04,1.19-.04,2.07,.01,1.53,.04,2.05,.1,.9,.22,1.15c.12,.24,.33,.41,.63,.5,.31,.09,.73,.13,1.27,.13Z"
      /><path
        class="cls-2"
        d="M115.86,39.14c-1.15,0-2.09-.1-2.83-.31-.74-.21-1.32-.5-1.75-.89-.43-.39-.75-.87-.94-1.44-.2-.57-.33-1.23-.39-1.98-.06-.75-.09-1.57-.09-2.47s.03-1.69,.09-2.43c.06-.74,.2-1.4,.42-1.98s.54-1.07,.97-1.47c.43-.4,1.01-.7,1.74-.9s1.65-.31,2.76-.31c.72,0,1.44,.04,2.17,.11,.73,.07,1.38,.18,1.95,.32v3.07c-.36-.07-.82-.13-1.37-.18-.56-.04-1.09-.07-1.59-.07-.61,0-1.1,.05-1.48,.16-.38,.11-.65,.29-.82,.55-.17,.26-.29,.64-.35,1.15-.06,.5-.09,1.16-.09,1.97s.03,1.49,.09,1.98c.06,.49,.18,.88,.36,1.15,.18,.27,.45,.45,.82,.55,.37,.1,.88,.15,1.52,.15,.41,0,.89-.02,1.44-.05,.55-.04,1.07-.1,1.58-.19v3.07c-.59,.13-1.27,.23-2.02,.31-.75,.08-1.48,.12-2.18,.12Z"
      /><path
        class="cls-2"
        d="M122.81,38.92V18.9h4.31v11.53h.81l3.58-5.25h4.66l-4.69,6.58,4.77,7.17h-4.82l-3.5-5.2h-.81v5.2h-4.31Z"
      /><path
        class="cls-2"
        d="M143.32,39.14c-.59,0-1.22-.02-1.89-.05-.66-.04-1.31-.08-1.94-.13-.63-.05-1.2-.12-1.72-.19v-3.05c.29,.04,.62,.07,.98,.09,.37,.03,.75,.05,1.13,.07,.39,.02,.76,.04,1.13,.05,.37,.02,.7,.03,1.01,.03,.86,0,1.48-.03,1.85-.09,.37-.06,.6-.18,.7-.35,.1-.17,.15-.4,.15-.69s-.03-.49-.09-.62-.19-.22-.38-.27c-.19-.05-.51-.11-.96-.16l-3.18-.43c-.79-.09-1.39-.31-1.79-.67s-.67-.84-.79-1.43c-.13-.59-.19-1.29-.19-2.1,0-.95,.14-1.7,.43-2.25,.29-.55,.69-.97,1.2-1.25,.51-.29,1.12-.47,1.83-.55,.71-.08,1.48-.12,2.3-.12,.56,0,1.15,.02,1.77,.05s1.2,.09,1.75,.15c.55,.06,1,.13,1.36,.2v3.05c-.45-.05-.92-.1-1.42-.13s-.97-.07-1.41-.09c-.45-.03-.83-.04-1.13-.04-.74,0-1.29,.02-1.67,.07-.38,.04-.63,.14-.77,.28-.13,.14-.2,.37-.2,.67,0,.27,.03,.47,.08,.61,.05,.13,.17,.23,.34,.28,.17,.05,.44,.11,.82,.16l3.21,.4c.63,.07,1.16,.22,1.59,.43,.43,.22,.76,.6,.98,1.16s.34,1.39,.34,2.51c0,.99-.13,1.78-.39,2.37-.26,.59-.63,1.04-1.12,1.33-.48,.3-1.06,.49-1.71,.58-.66,.09-1.39,.13-2.2,.13Z"
      /><path
        class="cls-2"
        d="M153.81,38.92l-3.53-13.74h4.31l1.97,9.43h.24l2.4-9.43h3.96l2.48,9.43h.24l1.91-9.43h4.2l-3.5,13.74h-5.31l-1.94-7.22h-.24l-1.89,7.22h-5.31Z"
      /><path
        class="cls-2"
        d="M177.25,39.14c-.88,0-1.61-.13-2.2-.4s-1.02-.71-1.32-1.32c-.3-.61-.44-1.41-.44-2.4,0-1.04,.12-1.87,.36-2.49,.24-.62,.68-1.06,1.32-1.33,.64-.27,1.52-.4,2.65-.4,.16,0,.39,0,.69,.01,.3,0,.63,.02,1.01,.03,.38,0,.75,.02,1.12,.03,.37,0,.71,.02,1.04,.04v-.51c0-.5-.04-.9-.12-1.2-.08-.3-.23-.51-.46-.65-.23-.13-.56-.22-1.01-.26-.45-.04-1.04-.05-1.78-.05-.4,0-.84,.01-1.35,.04s-.99,.05-1.47,.08c-.48,.03-.88,.06-1.2,.09v-3.02c.74-.14,1.57-.26,2.49-.34,.93-.08,1.9-.12,2.92-.12,1.15,0,2.11,.07,2.87,.22,.76,.14,1.38,.36,1.85,.66,.47,.3,.81,.67,1.04,1.12,.22,.45,.37,.98,.43,1.58,.06,.6,.09,1.3,.09,2.09v8.3h-4.1l-.13-1.62h-.22c-.32,.56-.71,.97-1.17,1.23-.46,.26-.94,.43-1.44,.5-.5,.07-1,.11-1.48,.11Zm2.05-3.1c.32,0,.6-.02,.84-.05,.23-.04,.44-.11,.62-.23,.18-.12,.31-.27,.4-.47,.11-.2,.19-.44,.24-.71,.05-.28,.08-.62,.08-1.01v-.51h-2.48c-.47,0-.82,.03-1.05,.09s-.39,.21-.47,.43c-.08,.22-.12,.57-.12,1.04,0,.4,.04,.7,.13,.9,.09,.21,.27,.35,.55,.42,.28,.07,.7,.11,1.25,.11Z"
      /><path
        class="cls-2"
        d="M189.16,38.92v-13.74h4.1l.11,1.67h.24c.27-.49,.6-.86,1-1.13,.4-.27,.85-.46,1.36-.58,.51-.12,1.06-.18,1.63-.18,.92,0,1.65,.12,2.2,.35,.55,.23,.97,.58,1.25,1.04,.29,.46,.48,1.02,.57,1.67,.09,.66,.13,1.42,.13,2.3v8.6h-4.31v-7.28c0-.74-.02-1.32-.05-1.74-.04-.42-.12-.73-.24-.93-.13-.2-.32-.32-.58-.38-.26-.05-.61-.08-1.04-.08-.47,0-.84,.05-1.1,.16-.27,.11-.47,.28-.59,.53-.13,.24-.22,.57-.27,.98-.05,.41-.08,.94-.08,1.59v7.14h-4.31Z"
      /></g><rect
      class="cls-4"
      x=".5"
      y=".5"
      width="57.75"
      height="57.75"
      rx="8.37"
      ry="8.37"
    /><g><path
        class="cls-3"
        d="M47.07,40.59l-6.87-14.39c-.12-.25-.09-.53,.07-.76,.12-.17,.32-.28,.53-.31l2.44-.35c.84-.12,1.46-.84,1.46-1.69v-1.65c0-.54-.26-1.03-.66-1.35l-2.27-1.91c-.23-.32-.57-.56-.98-.62l-12.56-1.83c-.54-.08-1.06,.14-1.39,.58-.33,.44-.38,1-.14,1.5l6.65,13.93c.15,.31,.13,.66-.06,.95-.05,.07-.1,.14-.16,.19l-4.12-7.78c-.07-.14-.16-.26-.27-.38h0s-.06-.05-.06-.05c-.05-.05-.1-.09-.16-.14l-2.3-1.97c-.27-.35-.69-.56-1.15-.56-1.62,0-3.53,0-5.47,0-1.73,0-3.48,0-5.04,0h0c-.52,0-.99,.27-1.25,.71-.27,.44-.28,.98-.04,1.44l2.23,4.22c.22,.41,.12,.93-.24,1.22l-3.2,2.65c-.62,.51-.71,1.44-.19,2.06l4.55,5.51c.13,.16,.29,.29,.47,.38l2.76,2.2c.5,.4,1.11,.61,1.75,.61h1.29c1.55,0,3.15,0,3.74,0h6.45c1.61,0,3.44,0,5.28,0,1.89,0,3.81,0,5.54,0,.62,0,1.22,0,1.78,0,.54,0,1.06-.22,1.39-.65,.41-.52,.48-1.21,.2-1.79Z"
      /><path
        class="cls-1"
        d="M30.42,39.88c1.64,0,3.5,0,5.38,0,2.57,0,5.18,0,7.31,0,.34,0,.65-.17,.84-.46,.18-.29,.2-.64,.06-.95l-6.87-14.39c-.2-.42-.19-.91,.03-1.32,.22-.42,.62-.69,1.08-.76l2.47-.36c.48-.07,.84-.49,.84-.98v-1.65c0-.49-.36-.91-.85-.98l-12.56-1.83c-.37-.05-.72,.09-.94,.39s-.26,.68-.1,1.01l6.65,13.93c.22,.46,.19,.98-.08,1.41-.27,.43-.73,.68-1.24,.68-.54,0-1.04-.3-1.3-.78l-5.2-9.83c-.17-.32-.51-.52-.87-.52-1.62,0-3.53,0-5.47,0-1.73,0-3.48,0-5.05,0h0c-.35,0-.66,.18-.84,.48-.18,.3-.19,.66-.03,.97l2.23,4.22c.32,.61,.17,1.37-.36,1.82l-3.2,2.65c-.42,.35-.48,.97-.13,1.39l4.55,5.51c.19,.23,.47,.36,.76,.36h2.52c1.61,0,3.33,0,3.95,0h5.59c.27,0,.55,0,.84,0Z"
      /></g></g></svg>
