<?xml version="1.0" encoding="utf-8"?>
<!-- Generator: Adobe Illustrator 27.1.0, SVG Export Plug-In . SVG Version: 6.00 Build 0)  -->
<svg version="1.1" id="Calque_1" xmlns="http://www.w3.org/2000/svg" xmlns:xlink="http://www.w3.org/1999/xlink" x="0px" y="0px"
	 viewBox="0 0 841.9 595.3" style="enable-background:new 0 0 841.9 595.3;" xml:space="preserve">
<style type="text/css">
	.st0{fill:#121212;stroke:#FFFFFF;stroke-miterlimit:10;}
	.st1{fill:url(#SVGID_1_);}
	.st2{fill:#FFFFFF;}
</style>
<g id="Calque_1-2">
	<g>
		<path class="st0" d="M247,52.7h347.8c39.2,0,71,31.8,71,71v347.8c0,39.2-31.8,71-71,71H247c-39.2,0-71-31.8-71-71V123.7
			C176,84.5,207.8,52.7,247,52.7z"/>
		<g>
			
				<linearGradient id="SVGID_1_" gradientUnits="userSpaceOnUse" x1="279.9493" y1="199.3624" x2="552.2936" y2="337.4429" gradientTransform="matrix(1 0 0 -1 0 598)">
				<stop  offset="0.13" style="stop-color:#FBD347"/>
				<stop  offset="0.37" style="stop-color:#DB3832"/>
				<stop  offset="0.75" style="stop-color:#7E398E"/>
				<stop  offset="0.82" style="stop-color:#1791CE"/>
				<stop  offset="1" style="stop-color:#23A758"/>
			</linearGradient>
			<path class="st1" d="M571,392.8l-58.3-122.1c-1-2.1-0.8-4.5,0.6-6.4c1-1.4,2.7-2.4,4.5-2.6l20.7-3c7.1-1,12.4-7.1,12.4-14.3v-14
				c0-4.6-2.2-8.7-5.6-11.5l-19.3-16.2c-2-2.7-4.8-4.7-8.3-5.3l-106.5-15.5c-4.6-0.7-9,1.2-11.8,4.9c-2.8,3.7-3.2,8.5-1.2,12.7
				l56.4,118.1c1.3,2.6,1.1,5.6-0.5,8.1c-0.4,0.6-0.8,1.2-1.4,1.6l-34.9-66c-0.6-1.2-1.4-2.2-2.3-3.2l0,0l-0.5-0.4
				c-0.4-0.4-0.8-0.8-1.4-1.2l-19.5-16.7c-2.3-3-5.9-4.7-9.8-4.7c-13.7,0-29.9,0-46.4,0c-14.7,0-29.5,0-42.7,0l0,0
				c-4.4,0-8.4,2.3-10.6,6c-2.3,3.7-2.4,8.3-0.3,12.2l18.9,35.8c1.9,3.5,1,7.9-2,10.3l-27.1,22.5c-5.3,4.3-6,12.2-1.6,17.5
				l38.6,46.7c1.1,1.4,2.5,2.5,4,3.2l23.4,18.7c4.2,3.4,9.4,5.2,14.8,5.2h10.9c13.1,0,26.7,0,31.7,0h54.7c13.7,0,29.2,0,44.8,0
				c16,0,32.3,0,47,0c5.3,0,10.3,0,15.1,0c4.6,0,9-1.9,11.8-5.5c3.5-4.4,4.1-10.3,1.7-15.2V392.8z"/>
			<path class="st2" d="M429.8,386.7c13.9,0,29.7,0,45.6,0c21.8,0,43.9,0,62,0c2.9,0,5.5-1.4,7.1-3.9c1.5-2.5,1.7-5.4,0.5-8.1
				l-58.3-122.1c-1.7-3.6-1.6-7.7,0.3-11.2c1.9-3.6,5.3-5.9,9.2-6.4l20.9-3.1c4.1-0.6,7.1-4.2,7.1-8.3v-14c0-4.2-3.1-7.7-7.2-8.3
				l-106.5-15.5c-3.1-0.4-6.1,0.8-8,3.3c-1.9,2.5-2.2,5.8-0.8,8.6l56.4,118.1c1.9,3.9,1.6,8.3-0.7,12s-6.2,5.8-10.5,5.8
				c-4.6,0-8.8-2.5-11-6.6l-44.1-83.4c-1.4-2.7-4.3-4.4-7.4-4.4c-13.7,0-29.9,0-46.4,0c-14.7,0-29.5,0-42.8,0l0,0
				c-3,0-5.6,1.5-7.1,4.1c-1.5,2.5-1.6,5.6-0.3,8.2l18.9,35.8c2.7,5.2,1.4,11.6-3.1,15.4l-27.1,22.5c-3.6,3-4.1,8.2-1.1,11.8
				l38.6,46.7c1.6,2,4,3.1,6.4,3.1h21.4c13.7,0,28.2,0,33.5,0h47.4C425.1,386.8,427.4,386.8,429.8,386.7L429.8,386.7z"/>
		</g>
	</g>
</g>
</svg>
